<mxfile host="app.diagrams.net" modified="2022-07-04T16:37:16.636Z" agent="5.0 (Macintosh; Intel Mac OS X 10_15_7) AppleWebKit/537.36 (KHTML, like Gecko) Chrome/103.0.0.0 Safari/537.36" etag="DR2zA0tyH0JZ4Z0sTQLR" version="20.0.4" type="github">
  <diagram id="C5RBs43oDa-KdzZeNtuy" name="Page-1">
    <mxGraphModel dx="770" dy="621" grid="1" gridSize="10" guides="1" tooltips="1" connect="1" arrows="1" fold="1" page="1" pageScale="1" pageWidth="827" pageHeight="1169" math="0" shadow="0">
      <root>
        <mxCell id="WIyWlLk6GJQsqaUBKTNV-0" />
        <mxCell id="WIyWlLk6GJQsqaUBKTNV-1" parent="WIyWlLk6GJQsqaUBKTNV-0" />
        <mxCell id="_YwVbCteuXMY_B32J36j-18" value="시작" style="strokeWidth=2;html=1;shape=mxgraph.flowchart.start_1;whiteSpace=wrap;" vertex="1" parent="WIyWlLk6GJQsqaUBKTNV-1">
          <mxGeometry x="30" y="10" width="100" height="60" as="geometry" />
        </mxCell>
        <mxCell id="_YwVbCteuXMY_B32J36j-20" value="" style="verticalLabelPosition=bottom;verticalAlign=top;html=1;strokeWidth=2;shape=mxgraph.arrows2.arrow;dy=0.6;dx=40;notch=0;rotation=90;" vertex="1" parent="WIyWlLk6GJQsqaUBKTNV-1">
          <mxGeometry x="41" y="102" width="80" height="30" as="geometry" />
        </mxCell>
        <mxCell id="_YwVbCteuXMY_B32J36j-21" value="빼빼로 만들기&amp;nbsp;" style="rounded=1;whiteSpace=wrap;html=1;absoluteArcSize=1;arcSize=14;strokeWidth=2;" vertex="1" parent="WIyWlLk6GJQsqaUBKTNV-1">
          <mxGeometry x="31" y="170" width="100" height="30" as="geometry" />
        </mxCell>
        <mxCell id="_YwVbCteuXMY_B32J36j-22" value="" style="verticalLabelPosition=bottom;verticalAlign=top;html=1;strokeWidth=2;shape=mxgraph.arrows2.arrow;dy=0.6;dx=40;notch=0;rotation=90;" vertex="1" parent="WIyWlLk6GJQsqaUBKTNV-1">
          <mxGeometry x="41" y="240" width="80" height="30" as="geometry" />
        </mxCell>
        <mxCell id="_YwVbCteuXMY_B32J36j-23" value="만들 빼빼로정보&amp;nbsp;&lt;br&gt;출력" style="strokeWidth=2;html=1;shape=mxgraph.flowchart.document2;whiteSpace=wrap;size=0.25;" vertex="1" parent="WIyWlLk6GJQsqaUBKTNV-1">
          <mxGeometry x="31" y="305" width="100" height="60" as="geometry" />
        </mxCell>
        <mxCell id="_YwVbCteuXMY_B32J36j-24" value="" style="verticalLabelPosition=bottom;verticalAlign=top;html=1;strokeWidth=2;shape=mxgraph.arrows2.arrow;dy=0.6;dx=40;notch=0;rotation=0;" vertex="1" parent="WIyWlLk6GJQsqaUBKTNV-1">
          <mxGeometry x="140" y="320" width="80" height="30" as="geometry" />
        </mxCell>
        <mxCell id="_YwVbCteuXMY_B32J36j-26" value="customPepepro" style="shape=parallelogram;html=1;strokeWidth=2;perimeter=parallelogramPerimeter;whiteSpace=wrap;rounded=1;arcSize=12;size=0.23;" vertex="1" parent="WIyWlLk6GJQsqaUBKTNV-1">
          <mxGeometry x="230" y="305" width="120" height="55" as="geometry" />
        </mxCell>
        <mxCell id="_YwVbCteuXMY_B32J36j-27" value="" style="verticalLabelPosition=bottom;verticalAlign=top;html=1;strokeWidth=2;shape=mxgraph.arrows2.arrow;dy=0.6;dx=40;notch=0;rotation=90;" vertex="1" parent="WIyWlLk6GJQsqaUBKTNV-1">
          <mxGeometry x="247" y="396" width="80" height="22" as="geometry" />
        </mxCell>
        <mxCell id="_YwVbCteuXMY_B32J36j-28" value="&amp;lt;정보&amp;gt;&lt;br&gt;길이: 6&amp;nbsp;&amp;nbsp;&lt;br&gt;몸통: |0|&lt;br&gt;토핑:&amp;nbsp; &amp;nbsp; &amp;nbsp;&lt;br&gt;&amp;nbsp; &amp;nbsp; 막대길이: 4&lt;br&gt;&amp;nbsp; &amp;nbsp;" style="rounded=1;whiteSpace=wrap;html=1;absoluteArcSize=1;arcSize=14;strokeWidth=2;" vertex="1" parent="WIyWlLk6GJQsqaUBKTNV-1">
          <mxGeometry x="230" y="460" width="115" height="100" as="geometry" />
        </mxCell>
        <mxCell id="_YwVbCteuXMY_B32J36j-30" value="makeBodyPart" style="rounded=1;whiteSpace=wrap;html=1;absoluteArcSize=1;arcSize=14;strokeWidth=2;" vertex="1" parent="WIyWlLk6GJQsqaUBKTNV-1">
          <mxGeometry x="235" y="643.5" width="115" height="56.5" as="geometry" />
        </mxCell>
        <mxCell id="_YwVbCteuXMY_B32J36j-31" value="makeBodyAll" style="rounded=1;whiteSpace=wrap;html=1;absoluteArcSize=1;arcSize=14;strokeWidth=2;" vertex="1" parent="WIyWlLk6GJQsqaUBKTNV-1">
          <mxGeometry x="235" y="860" width="125" height="50" as="geometry" />
        </mxCell>
        <mxCell id="_YwVbCteuXMY_B32J36j-33" value="makeBodyAll" style="rounded=1;whiteSpace=wrap;html=1;absoluteArcSize=1;arcSize=14;strokeWidth=2;" vertex="1" parent="WIyWlLk6GJQsqaUBKTNV-1">
          <mxGeometry x="230" y="1080" width="125" height="50" as="geometry" />
        </mxCell>
        <mxCell id="_YwVbCteuXMY_B32J36j-35" value="빼빼로몸통파트&amp;nbsp;&lt;br&gt;&amp;nbsp; &amp;nbsp;peperoBodyPart = &quot;&amp;nbsp; &quot; + topping + body + topping" style="rounded=1;whiteSpace=wrap;html=1;absoluteArcSize=1;arcSize=14;strokeWidth=2;" vertex="1" parent="WIyWlLk6GJQsqaUBKTNV-1">
          <mxGeometry x="448.5" y="631.25" width="161.5" height="58.5" as="geometry" />
        </mxCell>
        <mxCell id="_YwVbCteuXMY_B32J36j-36" value="" style="verticalLabelPosition=bottom;verticalAlign=top;html=1;strokeWidth=2;shape=mxgraph.arrows2.arrow;dy=0.6;dx=40;notch=0;rotation=90;" vertex="1" parent="WIyWlLk6GJQsqaUBKTNV-1">
          <mxGeometry x="255" y="591.25" width="70" height="22" as="geometry" />
        </mxCell>
        <mxCell id="_YwVbCteuXMY_B32J36j-38" value="" style="verticalLabelPosition=bottom;verticalAlign=top;html=1;strokeWidth=2;shape=mxgraph.arrows2.arrow;dy=0.6;dx=40;notch=0;rotation=0;" vertex="1" parent="WIyWlLk6GJQsqaUBKTNV-1">
          <mxGeometry x="365" y="656.5" width="70" height="22" as="geometry" />
        </mxCell>
        <mxCell id="_YwVbCteuXMY_B32J36j-44" value="" style="verticalLabelPosition=bottom;verticalAlign=top;html=1;strokeWidth=2;shape=mxgraph.arrows2.arrow;dy=0.6;dx=40;notch=0;rotation=90;" vertex="1" parent="WIyWlLk6GJQsqaUBKTNV-1">
          <mxGeometry x="493.88" y="720" width="70.75" height="30" as="geometry" />
        </mxCell>
        <mxCell id="_YwVbCteuXMY_B32J36j-48" value="return &quot;|0|&quot;" style="rounded=1;whiteSpace=wrap;html=1;absoluteArcSize=1;arcSize=14;strokeWidth=2;" vertex="1" parent="WIyWlLk6GJQsqaUBKTNV-1">
          <mxGeometry x="464.26" y="780" width="130" height="30" as="geometry" />
        </mxCell>
        <mxCell id="_YwVbCteuXMY_B32J36j-49" value="" style="verticalLabelPosition=bottom;verticalAlign=top;html=1;strokeWidth=2;shape=mxgraph.arrows2.arrow;dy=0.6;dx=40;notch=0;rotation=90;" vertex="1" parent="WIyWlLk6GJQsqaUBKTNV-1">
          <mxGeometry x="222.5" y="772.5" width="135" height="22" as="geometry" />
        </mxCell>
        <mxCell id="_YwVbCteuXMY_B32J36j-50" value="" style="verticalLabelPosition=bottom;verticalAlign=top;html=1;strokeWidth=2;shape=mxgraph.arrows2.arrow;dy=0.6;dx=40;notch=0;rotation=-180;" vertex="1" parent="WIyWlLk6GJQsqaUBKTNV-1">
          <mxGeometry x="313.5" y="780" width="135" height="22" as="geometry" />
        </mxCell>
        <mxCell id="_YwVbCteuXMY_B32J36j-51" value="" style="verticalLabelPosition=bottom;verticalAlign=top;html=1;strokeWidth=2;shape=mxgraph.arrows2.arrow;dy=0.6;dx=40;notch=0;rotation=90;" vertex="1" parent="WIyWlLk6GJQsqaUBKTNV-1">
          <mxGeometry x="217.75" y="979.75" width="146.5" height="22" as="geometry" />
        </mxCell>
        <mxCell id="_YwVbCteuXMY_B32J36j-52" value="빼빼로몸통전체 길이&lt;br&gt;for _ in 0 .. &amp;lt; size" style="rounded=1;whiteSpace=wrap;html=1;absoluteArcSize=1;arcSize=14;strokeWidth=2;" vertex="1" parent="WIyWlLk6GJQsqaUBKTNV-1">
          <mxGeometry x="455" y="850" width="161.5" height="50" as="geometry" />
        </mxCell>
        <mxCell id="_YwVbCteuXMY_B32J36j-53" value="" style="verticalLabelPosition=bottom;verticalAlign=top;html=1;strokeWidth=2;shape=mxgraph.arrows2.arrow;dy=0.6;dx=40;notch=0;rotation=0;" vertex="1" parent="WIyWlLk6GJQsqaUBKTNV-1">
          <mxGeometry x="371.5" y="875.25" width="70" height="22" as="geometry" />
        </mxCell>
        <mxCell id="_YwVbCteuXMY_B32J36j-54" value="" style="verticalLabelPosition=bottom;verticalAlign=top;html=1;strokeWidth=2;shape=mxgraph.arrows2.arrow;dy=0.6;dx=40;notch=0;rotation=90;" vertex="1" parent="WIyWlLk6GJQsqaUBKTNV-1">
          <mxGeometry x="494.76" y="940" width="70.75" height="18.75" as="geometry" />
        </mxCell>
        <mxCell id="_YwVbCteuXMY_B32J36j-55" value="return&lt;br&gt;body: &quot;|0|&quot;&lt;br&gt;height: 6" style="rounded=1;whiteSpace=wrap;html=1;absoluteArcSize=1;arcSize=14;strokeWidth=2;" vertex="1" parent="WIyWlLk6GJQsqaUBKTNV-1">
          <mxGeometry x="470.76" y="994.75" width="130" height="51.25" as="geometry" />
        </mxCell>
        <mxCell id="_YwVbCteuXMY_B32J36j-56" value="" style="verticalLabelPosition=bottom;verticalAlign=top;html=1;strokeWidth=2;shape=mxgraph.arrows2.arrow;dy=0.6;dx=40;notch=0;rotation=-180;" vertex="1" parent="WIyWlLk6GJQsqaUBKTNV-1">
          <mxGeometry x="320" y="1008.75" width="135" height="22" as="geometry" />
        </mxCell>
        <mxCell id="_YwVbCteuXMY_B32J36j-59" value="return&lt;br&gt;body: &quot;|0|&quot;&lt;br&gt;height: 6" style="rounded=1;whiteSpace=wrap;html=1;absoluteArcSize=1;arcSize=14;strokeWidth=2;" vertex="1" parent="WIyWlLk6GJQsqaUBKTNV-1">
          <mxGeometry x="470.75" y="1220" width="130" height="51.25" as="geometry" />
        </mxCell>
        <mxCell id="_YwVbCteuXMY_B32J36j-60" value="" style="verticalLabelPosition=bottom;verticalAlign=top;html=1;strokeWidth=2;shape=mxgraph.arrows2.arrow;dy=0.6;dx=40;notch=0;rotation=90;" vertex="1" parent="WIyWlLk6GJQsqaUBKTNV-1">
          <mxGeometry x="503.25" y="1159" width="65" height="22" as="geometry" />
        </mxCell>
        <mxCell id="_YwVbCteuXMY_B32J36j-61" value="빼빼로 스틱길이&lt;br&gt;for _ in 0 .. &amp;lt; size" style="rounded=1;whiteSpace=wrap;html=1;absoluteArcSize=1;arcSize=14;strokeWidth=2;" vertex="1" parent="WIyWlLk6GJQsqaUBKTNV-1">
          <mxGeometry x="455" y="1074" width="161.5" height="50" as="geometry" />
        </mxCell>
        <mxCell id="_YwVbCteuXMY_B32J36j-62" value="" style="verticalLabelPosition=bottom;verticalAlign=top;html=1;strokeWidth=2;shape=mxgraph.arrows2.arrow;dy=0.6;dx=40;notch=0;rotation=0;" vertex="1" parent="WIyWlLk6GJQsqaUBKTNV-1">
          <mxGeometry x="371.5" y="1099.25" width="70" height="22" as="geometry" />
        </mxCell>
        <mxCell id="_YwVbCteuXMY_B32J36j-66" value="" style="shape=flexArrow;endArrow=classic;html=1;rounded=0;width=11;endSize=4.5;" edge="1" parent="WIyWlLk6GJQsqaUBKTNV-1">
          <mxGeometry width="50" height="50" relative="1" as="geometry">
            <mxPoint x="450" y="1250" as="sourcePoint" />
            <mxPoint x="290" y="1140" as="targetPoint" />
            <Array as="points">
              <mxPoint x="290" y="1250" />
            </Array>
          </mxGeometry>
        </mxCell>
        <mxCell id="_YwVbCteuXMY_B32J36j-67" value="" style="verticalLabelPosition=bottom;verticalAlign=top;html=1;strokeWidth=2;shape=mxgraph.arrows2.arrow;dy=0.6;dx=40;notch=0;rotation=-180;" vertex="1" parent="WIyWlLk6GJQsqaUBKTNV-1">
          <mxGeometry x="122.5" y="1080" width="100" height="50" as="geometry" />
        </mxCell>
        <mxCell id="_YwVbCteuXMY_B32J36j-68" value="함수출력" style="shape=parallelogram;html=1;strokeWidth=2;perimeter=parallelogramPerimeter;whiteSpace=wrap;rounded=1;arcSize=12;size=0.23;" vertex="1" parent="WIyWlLk6GJQsqaUBKTNV-1">
          <mxGeometry x="20" y="1080" width="100" height="60" as="geometry" />
        </mxCell>
        <mxCell id="_YwVbCteuXMY_B32J36j-69" value="" style="verticalLabelPosition=bottom;verticalAlign=top;html=1;strokeWidth=2;shape=mxgraph.arrows2.arrow;dy=0.6;dx=40;notch=0;rotation=-90;" vertex="1" parent="WIyWlLk6GJQsqaUBKTNV-1">
          <mxGeometry x="-175" y="785" width="510" height="50" as="geometry" />
        </mxCell>
        <mxCell id="_YwVbCteuXMY_B32J36j-71" value="" style="verticalLabelPosition=bottom;verticalAlign=top;html=1;strokeWidth=2;shape=mxgraph.arrows2.arrow;dy=0.6;dx=40;notch=0;rotation=90;" vertex="1" parent="WIyWlLk6GJQsqaUBKTNV-1">
          <mxGeometry x="40" y="396" width="80" height="30" as="geometry" />
        </mxCell>
        <mxCell id="_YwVbCteuXMY_B32J36j-72" value="종료" style="strokeWidth=2;html=1;shape=mxgraph.flowchart.start_1;whiteSpace=wrap;" vertex="1" parent="WIyWlLk6GJQsqaUBKTNV-1">
          <mxGeometry x="30" y="470" width="100" height="60" as="geometry" />
        </mxCell>
      </root>
    </mxGraphModel>
  </diagram>
</mxfile>
